<svg width="16998" height="4148" viewBox="0 0 16998 4148" fill="none" xmlns="http://www.w3.org/2000/svg">
<path d="M3302.24 3402.55L3790.02 3890.33" stroke="white" style="stroke:white;stroke-opacity:1;" stroke-width="250" stroke-linecap="round" stroke-linejoin="round"/>
<path d="M3546.13 2670.89C3546.13 2132.1 3109.36 1695.33 2570.57 1695.33C2031.79 1695.33 1595.02 2132.1 1595.02 2670.89C1595.02 3209.68 2031.79 3646.45 2570.57 3646.45C3109.36 3646.45 3546.13 3209.68 3546.13 2670.89Z" stroke="white" style="stroke:white;stroke-opacity:1;" stroke-width="250" stroke-linecap="round" stroke-linejoin="round"/>
<path d="M1291.68 3461.67C741.711 3461.67 466.724 3461.67 295.871 3290.82C125.016 3119.95 125.016 2844.97 125.016 2295V1876.6C125.016 1596.38 125.016 1456.29 184.332 1335.01C243.647 1213.73 354.237 1127.71 575.417 955.685L908.752 696.425C1252.83 428.808 1424.87 295 1625.02 295C1825.17 295 1997.2 428.808 2341.28 696.425L2674.62 955.685C2895.8 1127.71 3006.38 1213.73 3065.7 1335.01" stroke="white" style="stroke:white;stroke-opacity:1;" stroke-width="250" stroke-linecap="round" stroke-linejoin="round"/>
<path d="M2305.02 2357H2836.52" stroke="white" style="stroke:white;stroke-opacity:1;" stroke-width="150" stroke-linecap="round"/>
<path d="M2305.02 2566H2836.52" stroke="white" style="stroke:white;stroke-opacity:1;" stroke-width="150" stroke-linecap="round"/>
<path d="M2305.02 2775H2836.52" stroke="white" style="stroke:white;stroke-opacity:1;" stroke-width="150" stroke-linecap="round"/>
<path d="M2305.02 2984H2836.52" stroke="white" style="stroke:white;stroke-opacity:1;" stroke-width="150" stroke-linecap="round"/>
<path d="M5808.91 3042L5156.32 2184.78V3042H4683.46V1100.8H5156.32V1952.5L5803.38 1100.8H6359.19L5607.05 2052.04L6386.85 3042H5808.91ZM7313.94 3064.12C7162.77 3064.12 7026.35 3031.86 6904.68 2967.34C6784.85 2902.82 6689.91 2810.64 6619.86 2690.81C6551.65 2570.99 6517.55 2430.88 6517.55 2270.5C6517.55 2111.96 6552.57 1972.77 6622.63 1852.95C6692.68 1731.28 6788.54 1638.18 6910.21 1573.66C7031.88 1509.14 7168.3 1476.88 7319.47 1476.88C7470.63 1476.88 7607.05 1509.14 7728.72 1573.66C7850.39 1638.18 7946.25 1731.28 8016.31 1852.95C8086.36 1972.77 8121.39 2111.96 8121.39 2270.5C8121.39 2429.04 8085.44 2569.14 8013.54 2690.81C7943.49 2810.64 7846.7 2902.82 7723.19 2967.34C7601.52 3031.86 7465.1 3064.12 7313.94 3064.12ZM7313.94 2654.87C7404.27 2654.87 7480.77 2621.68 7543.45 2555.32C7607.97 2488.95 7640.23 2394.01 7640.23 2270.5C7640.23 2146.98 7608.89 2052.04 7546.22 1985.68C7485.38 1919.31 7409.8 1886.13 7319.47 1886.13C7227.29 1886.13 7150.79 1919.31 7089.95 1985.68C7029.12 2050.2 6998.7 2145.14 6998.7 2270.5C6998.7 2394.01 7028.19 2488.95 7087.19 2555.32C7148.02 2621.68 7223.6 2654.87 7313.94 2654.87ZM8999.95 3064.12C8865.38 3064.12 8745.55 3041.08 8640.47 2994.99C8535.39 2948.9 8452.44 2886.22 8391.6 2806.95C8330.77 2725.84 8296.66 2635.51 8289.29 2535.96H8756.61C8762.14 2589.42 8787.03 2632.74 8831.27 2665.93C8875.52 2699.11 8929.9 2715.7 8994.42 2715.7C9053.41 2715.7 9098.58 2704.64 9129.92 2682.52C9163.1 2658.55 9179.69 2628.14 9179.69 2591.27C9179.69 2547.02 9156.65 2514.76 9110.56 2494.48C9064.48 2472.36 8989.81 2448.4 8886.58 2422.59C8775.97 2396.78 8683.79 2370.05 8610.05 2342.39C8536.31 2312.9 8472.71 2267.73 8419.25 2206.9C8365.79 2144.22 8339.06 2060.34 8339.06 1955.26C8339.06 1866.77 8363.03 1786.58 8410.96 1714.69C8460.73 1640.95 8532.63 1582.88 8626.65 1540.48C8722.51 1498.08 8835.88 1476.88 8966.77 1476.88C9160.34 1476.88 9312.42 1524.81 9423.03 1620.67C9535.49 1716.53 9600.01 1843.73 9616.6 2002.27H9179.69C9172.32 1948.81 9148.35 1906.41 9107.8 1875.07C9069.08 1843.73 9017.47 1828.06 8952.94 1828.06C8897.64 1828.06 8855.24 1839.12 8825.74 1861.24C8796.25 1881.52 8781.5 1910.1 8781.5 1946.97C8781.5 1991.21 8804.54 2024.39 8850.63 2046.51C8898.56 2068.64 8972.3 2090.76 9071.85 2112.88C9186.15 2142.38 9279.24 2171.87 9351.14 2201.37C9423.03 2229.02 9485.71 2275.11 9539.17 2339.63C9594.48 2402.31 9623.05 2487.11 9624.9 2594.03C9624.9 2684.36 9599.09 2765.48 9547.47 2837.37C9497.7 2907.43 9424.88 2962.73 9329.02 3003.29C9235 3043.84 9125.31 3064.12 8999.95 3064.12ZM10904.1 3042L10500.4 2309.21H10387V3042H9914.19V1100.8H10707.8C10860.8 1100.8 10990.8 1127.53 11097.7 1181C11206.5 1234.46 11287.6 1308.2 11341.1 1402.21C11394.5 1494.39 11421.2 1597.62 11421.2 1711.92C11421.2 1840.97 11384.4 1956.18 11310.6 2057.58C11238.7 2158.97 11131.8 2230.86 10989.9 2273.26L11437.8 3042H10904.1ZM10387 1974.62H10680.2C10766.8 1974.62 10831.3 1953.42 10873.7 1911.02C10918 1868.62 10940.1 1808.7 10940.1 1731.28C10940.1 1657.54 10918 1599.47 10873.7 1557.07C10831.3 1514.67 10766.8 1493.47 10680.2 1493.47H10387V1974.62ZM11624.1 2267.73C11624.1 2109.19 11653.6 1970.01 11712.5 1850.18C11773.4 1730.36 11855.4 1638.18 11958.6 1573.66C12061.9 1509.14 12177.1 1476.88 12304.3 1476.88C12413.1 1476.88 12508 1499 12589.1 1543.24C12672.1 1587.48 12735.7 1645.55 12779.9 1717.45V1499H13252.8V3042H12779.9V2823.55C12733.8 2895.44 12669.3 2953.51 12586.4 2997.76C12505.2 3042 12410.3 3064.12 12301.5 3064.12C12176.2 3064.12 12061.9 3031.86 11958.6 2967.34C11855.4 2900.97 11773.4 2807.88 11712.5 2688.05C11653.6 2566.38 11624.1 2426.27 11624.1 2267.73ZM12779.9 2270.5C12779.9 2152.52 12746.7 2059.42 12680.4 1991.21C12615.9 1923 12536.6 1888.9 12442.6 1888.9C12348.5 1888.9 12268.4 1923 12202 1991.21C12137.5 2057.58 12105.2 2149.75 12105.2 2267.73C12105.2 2385.72 12137.5 2479.74 12202 2549.79C12268.4 2618 12348.5 2652.1 12442.6 2652.1C12536.6 2652.1 12615.9 2618 12680.4 2549.79C12746.7 2481.58 12779.9 2388.48 12779.9 2270.5ZM14535.1 1482.41C14715.7 1482.41 14859.5 1541.4 14966.4 1659.38C15075.2 1775.52 15129.6 1935.9 15129.6 2140.53V3042H14659.5V2204.13C14659.5 2100.9 14632.8 2020.71 14579.3 1963.56C14525.8 1906.41 14453.9 1877.83 14363.6 1877.83C14273.3 1877.83 14201.4 1906.41 14147.9 1963.56C14094.5 2020.71 14067.7 2100.9 14067.7 2204.13V3042H13594.9V1499H14067.7V1703.62C14115.7 1635.42 14180.2 1581.95 14261.3 1543.24C14342.4 1502.68 14433.7 1482.41 14535.1 1482.41ZM16401.1 3042L15931 2394.93V3042H15458.2V995.724H15931V2126.71L16398.3 1499H16981.8L16340.3 2273.26L16987.3 3042H16401.1Z" fill="white" style="fill:white;fill-opacity:1;"/>
</svg>
