<svg width="3916" height="3846" viewBox="0 0 3916 3846" fill="none" xmlns="http://www.w3.org/2000/svg">
<path d="M3302.24 3232.56L3790.02 3720.34" stroke="white" style="stroke:white;stroke-opacity:1;" stroke-width="250" stroke-linecap="round" stroke-linejoin="round"/>
<path d="M3546.13 2500.89C3546.13 1962.11 3109.36 1525.34 2570.57 1525.34C2031.79 1525.34 1595.02 1962.11 1595.02 2500.89C1595.02 3039.68 2031.79 3476.45 2570.57 3476.45C3109.36 3476.45 3546.13 3039.68 3546.13 2500.89Z" stroke="white" style="stroke:white;stroke-opacity:1;" stroke-width="250" stroke-linecap="round" stroke-linejoin="round"/>
<path d="M1291.68 3291.67C741.711 3291.67 466.724 3291.67 295.871 3120.82C125.016 2949.95 125.016 2674.97 125.016 2125V1706.6C125.016 1426.38 125.016 1286.29 184.332 1165.01C243.647 1043.73 354.237 957.713 575.417 785.685L908.752 526.425C1252.83 258.808 1424.87 125 1625.02 125C1825.17 125 1997.2 258.808 2341.28 526.425L2674.62 785.685C2895.8 957.713 3006.38 1043.73 3065.7 1165.01" stroke="white" style="stroke:white;stroke-opacity:1;" stroke-width="250" stroke-linecap="round" stroke-linejoin="round"/>
<path d="M2305.02 2187H2836.52" stroke="white" style="stroke:white;stroke-opacity:1;" stroke-width="150" stroke-linecap="round"/>
<path d="M2305.02 2396H2836.52" stroke="white" style="stroke:white;stroke-opacity:1;" stroke-width="150" stroke-linecap="round"/>
<path d="M2305.02 2605H2836.52" stroke="white" style="stroke:white;stroke-opacity:1;" stroke-width="150" stroke-linecap="round"/>
<path d="M2305.02 2814H2836.52" stroke="white" style="stroke:white;stroke-opacity:1;" stroke-width="150" stroke-linecap="round"/>
</svg>
